# xmcd
#
# Track frame offsets:
#	183
#	18153
#	30958
#	42826
#	54036
#	66681
#	82271
#	94854
#	112349
#	125879
#	141771
#	148453
#
# Disc length: 2161 seconds
#
# Revision: 0
# Processed by: cddbd v1.5.2PL0 Copyright (c) Steve Scherf et al.
# Submitted via: audiograbber 1.83.01
#
DISCID=b4086f0c
DTITLE=Don Williams - A Collection of Hits
DYEAR=1900
DGENRE=Country
TTITLE0=Good Ole Boys
TTITLE1=Amanda
TTITLE2=Tulsa Time
TTITLE3=Storybook Children
TTITLE4=There's never Been A Time
TTITLE5=Tears
TTITLE6=Coming Apart
TTITLE7=I Believe In You
TTITLE8=Ruby Tuesday
TTITLE9=I've Been Loved By The Best
TTITLE10=Lord I Hope This Day Is Good
TTITLE11=You're My Best Friend
EXTD=
EXTT0=
EXTT1=
EXTT2=
EXTT3=
EXTT4=
EXTT5=
EXTT6=
EXTT7=
EXTT8=
EXTT9=
EXTT10=
EXTT11=
PLAYORDER=
